<svg data-v-fde0c5aa="" xmlns="http://www.w3.org/2000/svg" viewBox="0 0 300 300" class="font"><!----><defs data-v-fde0c5aa=""><!----></defs><rect data-v-fde0c5aa="" fill="transparent" x="0" y="0" width="300px" height="300px" class="logo-background-square"></rect><defs data-v-fde0c5aa=""><linearGradient data-v-fde0c5aa="" gradientTransform="rotate(25)" id="a2a30053-8a64-4b1a-a867-b4a171d760fe" x1="0%" y1="0%" x2="100%" y2="0%"><stop data-v-fde0c5aa="" offset="0%" stop-color="#E46F21" stop-opacity="1"></stop><stop data-v-fde0c5aa="" offset="100%" stop-color="#04215A" stop-opacity="1"></stop></linearGradient></defs><g data-v-fde0c5aa="" id="9db5b510-3e4b-44d3-8d07-5877b876d8df" fill="url(#a2a30053-8a64-4b1a-a867-b4a171d760fe)" transform="matrix(4.2711968421936035,0,0,4.2711968421936035,33.54315182769606,115.25481571363568)"><path d="M1.51 3.49L2.32 3.51L2.32 3.51Q4.91 3.47 4.96 3.47L4.96 3.47L4.96 3.47Q7.43 3.47 8.65 4.60L8.65 4.60L8.65 4.60Q9.87 5.73 9.87 8.06L9.87 8.06L9.87 8.06Q9.87 9.53 9.41 10.68L9.41 10.68L9.41 10.68Q8.36 13.29 5.00 13.29L5.00 13.29L2.34 13.27L1.51 13.27L1.51 13.17L1.51 13.17Q1.74 12.31 1.74 10.33L1.74 10.33L1.74 6.43L1.74 6.43Q1.74 4.45 1.51 3.58L1.51 3.58L1.51 3.49ZM4.94 12.33L4.94 12.33L4.94 12.33Q6.64 12.33 7.36 11.90L7.36 11.90L7.36 11.90Q8.29 10.85 8.29 8.48L8.29 8.48L8.29 8.48Q8.29 6.10 7.44 5.21L7.44 5.21L7.44 5.21Q6.59 4.31 4.59 4.31L4.59 4.31L4.59 4.31Q4.55 4.31 3.21 4.33L3.21 4.33L3.21 4.33Q3.18 4.86 3.18 7.77L3.18 7.77L3.18 8.61L3.18 8.61Q3.18 11.83 3.23 12.25L3.23 12.25L3.23 12.25Q4.07 12.33 4.94 12.33ZM14.29 13.44L14.29 13.44L14.29 13.44Q12.82 13.44 12.00 12.53L12.00 12.53L12.00 12.53Q11.17 11.62 11.17 10.13L11.17 10.13L11.17 10.13Q11.17 8.64 12.10 7.52L12.10 7.52L12.10 7.52Q13.02 6.40 14.39 6.40L14.39 6.40L14.39 6.40Q16.90 6.40 16.90 9.49L16.90 9.49L16.38 10.00L12.66 10.00L12.66 10.00Q12.66 11.17 13.16 11.76L13.16 11.76L13.16 11.76Q13.66 12.35 14.52 12.35L14.52 12.35L14.52 12.35Q14.85 12.35 15.47 12.14L15.47 12.14L15.47 12.14Q16.09 11.94 16.56 11.66L16.56 11.66L16.91 12.19L16.91 12.19Q16.65 12.46 15.76 12.95L15.76 12.95L15.76 12.95Q14.87 13.44 14.29 13.44ZM14.14 7.10L14.14 7.10L14.14 7.10Q13.55 7.10 13.23 7.36L13.23 7.36L13.23 7.36Q12.96 7.73 12.81 8.29L12.81 8.29L12.81 8.29Q12.66 8.85 12.66 9.27L12.66 9.27L15.53 9.16L15.53 9.16Q15.53 7.10 14.14 7.10ZM19.29 6.45L19.29 6.62L19.29 6.62Q19.29 7.03 19.85 8.74L19.85 8.74L20.90 11.97L22.08 8.43L22.08 8.43Q22.37 7.50 22.37 6.73L22.37 6.73L22.37 6.57L23.84 6.57L23.84 6.73L23.84 6.73Q23.46 7.08 23.11 8.09L23.11 8.09L21.53 12.67L21.34 13.38L20.03 13.44L19.80 12.64L18.13 8.04L18.13 8.04Q17.74 7.04 17.39 6.80L17.39 6.80L17.39 6.64L19.29 6.45ZM29.06 9.87L29.06 9.87Q28.50 9.86 27.48 9.86L27.48 9.86L27.48 9.86Q26.46 9.86 25.93 9.87L25.93 9.87L25.93 9.87Q25.54 11.44 25.45 11.95L25.45 11.95L25.45 11.95Q25.35 12.46 25.35 13.05L25.35 13.05L25.35 13.29L23.45 13.29L23.45 13.15L23.45 13.15Q24.08 12.66 25.14 9.26L25.14 9.26L25.14 9.26Q26.19 5.87 26.51 4.82L26.51 4.82L26.51 4.82Q26.82 3.77 26.85 3.47L26.85 3.47L28.49 3.30L28.49 3.30Q28.49 3.79 29.37 6.36L29.37 6.36L29.37 6.36Q30.25 8.93 30.79 10.33L30.79 10.33L30.79 10.33Q31.33 11.73 31.63 12.28L31.63 12.28L31.63 12.28Q31.92 12.82 32.28 13.15L32.28 13.15L32.28 13.29L29.93 13.29L29.93 13.05L29.93 13.05Q29.93 12.54 29.80 12.11L29.80 12.11L29.80 12.11Q29.67 11.68 29.62 11.55L29.62 11.55L29.06 9.87ZM27.44 4.52L27.44 4.52L27.44 4.52Q27.16 5.26 26.10 9.07L26.10 9.07L28.83 9.07L28.83 9.07Q28.57 8.30 28.08 6.65L28.08 6.65L28.08 6.65Q27.59 5.00 27.44 4.52ZM34.76 13.12L34.76 13.29L32.96 13.29L32.96 13.12L32.96 13.12Q33.19 12.42 33.19 10.91L33.19 10.91L33.19 5.07L33.19 5.07Q33.19 3.95 32.55 3.33L32.55 3.33L32.55 3.16L34.47 2.83L34.55 2.97L34.55 2.97Q34.51 3.37 34.51 5.66L34.51 5.66L34.52 10.91L34.52 10.91Q34.52 12.42 34.76 13.12L34.76 13.12ZM39.28 13.44L39.28 13.44L39.28 13.44Q37.81 13.44 36.99 12.53L36.99 12.53L36.99 12.53Q36.16 11.62 36.16 10.13L36.16 10.13L36.16 10.13Q36.16 8.64 37.09 7.52L37.09 7.52L37.09 7.52Q38.01 6.40 39.38 6.40L39.38 6.40L39.38 6.40Q41.89 6.40 41.89 9.49L41.89 9.49L41.37 10.00L37.65 10.00L37.65 10.00Q37.65 11.17 38.15 11.76L38.15 11.76L38.15 11.76Q38.65 12.35 39.51 12.35L39.51 12.35L39.51 12.35Q39.84 12.35 40.46 12.14L40.46 12.14L40.46 12.14Q41.08 11.94 41.55 11.66L41.55 11.66L41.90 12.19L41.90 12.19Q41.64 12.46 40.75 12.95L40.75 12.95L40.75 12.95Q39.86 13.44 39.28 13.44ZM39.13 7.10L39.13 7.10L39.13 7.10Q38.54 7.10 38.22 7.36L38.22 7.36L38.22 7.36Q37.95 7.73 37.80 8.29L37.80 8.29L37.80 8.29Q37.65 8.85 37.65 9.27L37.65 9.27L40.52 9.16L40.52 9.16Q40.52 7.10 39.13 7.10ZM47.19 6.40L47.19 6.40L47.19 6.40Q47.63 6.40 47.84 6.50L47.84 6.50L47.84 6.50Q47.84 6.58 47.84 6.66L47.84 6.66L47.84 6.66Q47.84 7.49 47.59 8.16L47.59 8.16L47.59 8.16Q46.96 7.76 46.16 7.76L46.16 7.76L46.16 7.76Q45.72 7.76 45.29 7.91L45.29 7.91L45.29 10.91L45.29 10.91Q45.29 12.26 45.70 13.19L45.70 13.19L45.70 13.29L43.74 13.29L43.74 13.19L43.74 13.19Q43.97 12.49 43.97 11.33L43.97 11.33L43.97 8.95L43.97 8.95Q43.97 8.34 43.73 7.76L43.73 7.76L43.73 7.76Q43.48 7.18 43.16 6.99L43.16 6.99L43.15 6.82L44.80 6.38L44.80 6.38Q45.02 6.76 45.16 7.27L45.16 7.27L45.16 7.27Q46.00 6.40 47.19 6.40ZM50.96 7.35L50.96 11.72L50.96 11.72Q50.96 12.46 51.41 12.46L51.41 12.46L51.41 12.46Q51.79 12.46 52.68 12.01L52.68 12.01L52.98 12.50L52.98 12.50Q52.53 12.81 51.86 13.13L51.86 13.13L51.86 13.13Q51.18 13.44 50.62 13.44L50.62 13.44L50.62 13.44Q50.06 13.44 49.85 13.09L49.85 13.09L49.85 13.09Q49.64 12.74 49.64 12.08L49.64 12.08L49.64 7.36L48.38 7.43L48.72 6.52L48.72 6.52Q48.97 6.55 49.62 6.58L49.62 6.58L49.62 6.58Q49.59 5.88 49.53 5.32L49.53 5.32L50.96 4.96L50.96 6.57L50.96 6.57Q51.72 6.54 53.02 6.40L53.02 6.40L52.63 7.49L52.63 7.49Q51.87 7.38 50.96 7.35L50.96 7.35Z"></path></g><!----><!----></svg>